/* XPM */
static char *a316c221bf8541d984a56c2a6ef2e915VaLy0eeI1wHk2L5V[] = {
/* columns rows colors chars-per-pixel */
"24 32 194 2 ",
"   c None",
".  c #04193F",
"X  c #061942",
"o  c #091D43",
"O  c #091847",
"+  c #0E184E",
"@  c #121755",
"#  c #131756",
"$  c #1A1D52",
"%  c #0D2146",
"&  c #0E2347",
"*  c #13224E",
"=  c #172B4E",
"-  c #293B5C",
";  c #191660",
":  c #1D1667",
">  c #261575",
",  c #281578",
"<  c #291579",
"1  c #36226C",
"2  c #384967",
"3  c #42526F",
"4  c #50607A",
"5  c #2F1484",
"6  c #311486",
"7  c #321388",
"8  c #381391",
"9  c #391393",
"0  c #3F129D",
"q  c #5B298C",
"w  c #6D2C9E",
"e  c #4311A2",
"r  c #4311A3",
"t  c #4511A6",
"y  c #4511A7",
"u  c #4711A9",
"i  c #4C10B1",
"p  c #4C10B2",
"a  c #4E10B4",
"s  c #5110BA",
"d  c #5210BA",
"f  c #5310BC",
"g  c #722BA6",
"h  c #7A36A4",
"j  c #614586",
"k  c #654689",
"l  c #724C93",
"z  c #62579B",
"x  c #616F86",
"c  c #627088",
"v  c #707C92",
"b  c #780BF7",
"n  c #7E0EF7",
"m  c #7C12F7",
"M  c #8932B4",
"N  c #8B3BB3",
"B  c #82549F",
"V  c #8455A1",
"C  c #8656A2",
"Z  c #8756A3",
"A  c #8D59A7",
"S  c #8F5AA9",
"D  c #905AA9",
"F  c #9158AC",
"G  c #9046B3",
"H  c #995BB2",
"J  c #9A5FB1",
"K  c #8171B5",
"L  c #8210F7",
"P  c #8019F7",
"I  c #8512F8",
"U  c #8613F8",
"Y  c #821DF8",
"T  c #831FF8",
"R  c #8320F8",
"E  c #8929F8",
"W  c #8A2BF8",
"Q  c #9225F7",
"!  c #982BF7",
"~  c #9624F8",
"^  c #9E20F9",
"/  c #9D30F7",
"(  c #A425F5",
")  c #A625F9",
"_  c #A725F9",
"`  c #AA26F9",
"'  c #AE29F9",
"]  c #B32BF9",
"[  c #A735F9",
"{  c #AB30F8",
"}  c #BD3FFA",
"|  c #BB5FD1",
" . c #8E6FC9",
".. c #BC6FCB",
"X. c #BC64D0",
"o. c #B645E4",
"O. c #B051E5",
"+. c #A84CF8",
"@. c #A65FF9",
"#. c #A965FA",
"$. c #A966FA",
"%. c #B36EFA",
"&. c #B175FA",
"*. c #B276FA",
"=. c #C272D0",
"-. c #D67BDF",
";. c #CD5AE5",
":. c #D75EED",
">. c #CC49F9",
",. c #D840FB",
"<. c #D944FB",
"1. c #DA45FB",
"2. c #E056FA",
"3. c #E058FA",
"4. c #E35CF9",
"5. c #E35DF9",
"6. c #D97CE1",
"7. c #DD7EE4",
"8. c #D064F6",
"9. c #D367F6",
"0. c #D96EF6",
"q. c #DA6EF6",
"w. c #DA6FF6",
"e. c #DF63FB",
"r. c #DE61FC",
"t. c #DF67FC",
"y. c #E665F8",
"u. c #E666F8",
"i. c #E768F8",
"p. c #E86AF8",
"a. c #E96CF8",
"s. c #EC75F7",
"d. c #ED76F7",
"f. c #ED77F7",
"g. c #EA7FF6",
"h. c #E473FB",
"j. c #748195",
"k. c #758196",
"l. c #768297",
"z. c #7B879A",
"x. c #7B879B",
"c. c #808B9E",
"v. c #8C8FAE",
"b. c #8792A4",
"n. c #9FA8B6",
"m. c #B3BAC5",
"M. c #B4BBC6",
"N. c #B6BDC8",
"B. c #BC89FB",
"V. c #BC8DF8",
"C. c #EC8FF7",
"Z. c #E68AFC",
"A. c #F080F7",
"S. c #F182F6",
"D. c #F182F7",
"F. c #F386F6",
"G. c #F388F6",
"H. c #F489F6",
"J. c #F48AF6",
"K. c #F48CF6",
"L. c #F598F7",
"P. c #F599F7",
"I. c #F49BF8",
"U. c #C8BFE2",
"Y. c #D9BDFC",
"T. c #DABFFC",
"R. c #E1B6E8",
"E. c #F6A1F8",
"W. c #F6A3F8",
"Q. c #F6A9F8",
"!. c #F6ABF8",
"~. c #F0BCFD",
"^. c #C0C7D0",
"/. c #C8CED6",
"(. c #C9CFD7",
"). c #CCD2D9",
"_. c #D1D6DD",
"`. c #D1D7DD",
"'. c #E0C1FC",
"]. c #F2C6FD",
"[. c #F2CBFD",
"{. c #E6D6FD",
"}. c #F8D1FB",
"|. c #DBE0E5",
" X c #DFE4E8",
".X c #E0E4E8",
"XX c #EBEEF1",
"oX c #F2F5F6",
"OX c #FCF7FE",
"+X c #F8FAFB",
"@X c #FBFBFE",
"#X c #FAFCFC",
"$X c #FBFDFD",
"%X c #FCFEFE",
/* pixels */
"                                                ",
"                                                ",
"                                                ",
"            . . . . .   . . . .                 ",
"          j S S D D C O y u u u >               ",
"        . C H.H.H.D.:.w ( _ L b f ,             ",
"          k X.a.f.g.5.5.5.1.` ^ U d >           ",
"          1 N 2.y.H.H.H.G.5.1.,.' U r .         ",
"        . h p.H.H.H.K.E.E.E.h.t.t.[ a ;         ",
"        $ F H.H.H.K.E.%X%X%X%X%X%XB.P i .       ",
"      . M i.H.H.H.W.%X+X+X+X$X%X%X$XV.i X       ",
"      . H F.H.H.!.OX X= = = ).%X%Xx.* 7 s .     ",
"      . J H.H.H.!._.- & /._.4 ^.x.= c v.@ .     ",
"      . J H.H.H.!./.. & oX%X2 M.c . l.n.. .     ",
"      . J H.H.H.!./.. & oX%X2 M.c . l.n.. .     ",
"      . G f.H.H.L.R.z.o v j.b.|.N.3 2 z 6 .     ",
"        q | H.H.H.E.XXj.l.j..X%X%XM.j.z 9       ",
"        . C H.H.H.I.}.~.@X%X%X%X%X%X{.K .       ",
"        . C H.H.g.q.S.3.].[.[.'.Y.U. .0 .       ",
"        . C H.H.8.Q K.I.r.r.r.~ b 9 . .         ",
"        . C H.H.9.! C.%X%X%X%X@.m 9 .           ",
"        . C H.H.G.q.W %X%X%X%X$X#.9 .           ",
"        . C H.H.H.q.W %X%X%X$X$X#.9 .           ",
"      . r O.H.H.H.q.E %X%X%X%X*.Y 9 .           ",
"    . C o.{ / / / +.T.$X$X%X*.R y :             ",
"  . B 6.f.>.] ] ] } Z.Z.Z.%.R b 6               ",
"  . =.H.H.f.y.y.y.;.g ` _ n b b 5               ",
"  . =.H.H.H.H.H.6.l @ b b b b b 5               ",
"  . A 7.H.H.H.6.B . + d d s s s ,               ",
"    . D ......B .   . . . . . .                 ",
"      . . . . .                                 ",
"                                                "
};
