/* XPM */
static char *d93a84a7d6884465ba8360f88f2ef826[] = {
/* columns rows colors chars-per-pixel */
"192 32 6 1 ",
"  c None",
". c #04193F",
"X c #780BF7",
"o c #D840FB",
"O c #F489F6",
"+ c #FCFEFE",
/* pixels */
"                                                                                                                                                                                                ",
"                                                                                                                                                                                                ",
"                                                                                                                                                                                                ",
"                                                                                                                                                                                                ",
"                                           ..     ..                                                                                       ..     ..                                            ",
"                                          .OO..  .XX.                                                                                     .OO..  .XX.                                           ",
"           ..... ....                     .OOOO..XXXX.                      ...    ...                     ..... ....                     .OOOO..XXXX.                      ...    ...          ",
"          .OOOOO.XXXX.                    .OOOOO..XXX.                     .OOO.  .XXX.                   .OOOOO.XXXX.                    .OOOOO..XXX.                     .OOO.  .XXX.         ",
"          .OOOOooooXXX.                   .OOOOooooXXX.                    .OOO.  .XXX.                   .OOOOooooXXX.                   .OOOOooooXXX.                    .OOO.  .XXX.         ",
"           .ooOOOOoooXX.                   .oOOOOOoooXX.                   .OOOO...XXX.                    .ooOOOOoooXX.                   .oOOOOOoooXX.                   .OOOO...XXX.         ",
"          .oOOOOOOOoooX.                  .oOOOOOOOoooX.                   .OOOooooXXXX.                  .oOOOOOOOoooX.                  .oOOOOOOOoooX.                   .OOOooooXXXX.        ",
"          .OOOOO++++++XX.                 .OOOOO++++++XX.                  .oOOOOOoooXX.                  .OOOOO++++++XX.                 .OOOOO++++++XX.                  .oOOOOOoooXX.        ",
"         .oOOOO++++++++X.                .oOOOO++++++++X.                 .oOOOOOOOoooX.                 .oOOOO++++++++X.                .oOOOO++++++++X.                 .oOOOOOOOoooX.        ",
"         .OOOO++...+++..X.               .OOOO++...+++..X.                .OOOOO++++++XX.                .OOOO++...+++..X.               .OOOO++...+++..X.                .OOOOO++++++XX.       ",
"         .OOOO+..++.+..+..               .OOOO+..++.+..+..               .oOOOO++++++++X.                .OOOO+..++.+..+..               .OOOO+..++.+..+..               .oOOOO++++++++X.       ",
"         .OOOO+..++.+..+..               .OOOO+..++.+..+..               .OOOO++...+++..X.               .OOOO+..++.+..+..               .OOOO+..++.+..+..               .OOOO++...+++..X.      ",
"         .OOOO+..++.+..+..               .OOOO+.....+.....               .OOOO+..++.+..+..               .OOOO+..++.+..+..               .OOOO+.....+.....               .OOOO+..++.+..+..      ",
"         .oOOOO+...+++..X.               .oOOOO+...+++..X.               .OOOO+.....+.....               .oOOOO+...+++..X.               .oOOOO+...+++..X.               .OOOO+.....+.....      ",
"          .OOOO+++++++++.                 .OOOO+++++++++.                .OOOO+.....+.....                .OOOO+++++++++.                 .OOOO+++++++++.                .OOOO+.....+.....      ",
"          .OOOOOo++++++X.                 .OOOOOo++++++X.                .oOOOO+...+++..X.               .OOOOOOo++++++X.                .OOOOOOo++++++X.                .oOOOO+...+++..X.      ",
"          .OOOXOOoooXX..                 .OOOOXOOoooXX..                  .OOOO+++++++++.               .OOOOOOOOoooXX..                 .OOOOOOOoooXX..                  .OOOO+++++++++.       ",
"          .OOOXO++++XX.                  .OOOOXO++++XX.                  .OOOOOOo++++++X.              .OOOOOXOOO+++XXXX.               .OOOOXOO++++XXX.                  .OOOOOo++++++X.       ",
"          .OOOOX+++++X.                 .OOOOOX++++++XX.                .OOOOOXOOoooXX..               .OOOOXoOO+++++XXX.               .OOOOXO++++++XXX.                .OOOOXOOoooXX..        ",
"          .OOOOX+++++X.                 .OOOOOX++++++XX.               .OOOOOOXOO+++XXXX.              .OOOXoOO++++++XXX.               .OOOXoO++++++XXX.                .OOOOXO++++XX.         ",
"         .XOOOOX++++XX.                 .OOOOXo+++++XXX.               .OOOOOXoO+++++XXX.               ...XoOO++++++...                .OOOXoOO++++.XXX.               .OOOOOX++++++XX.        ",
"        .OoXXXX++++XX.                   .XXXoo+++++XX.                .OOOOOXo++++++XXX.                  .OOOO++++.                    ...ooOOO+++....                .OOOOXo++++++XX.        ",
"       .OOOoooooooXXX.                  .OooooO++++XX.                 .OOOOXoO++++++XX.                   .OOOOoXXX.                       .OOOOoXX.                   .OOOOXo+++++.XX.        ",
"       .OOOOOOO.XXXXX.                  .OOOOOOoooXXX.                  .XXXooO+++++X..                    .OOOOXXX.                        .OOOO.X.                     ..XXoOO++++...         ",
"       .OOOOOO..XXXXX.                  .OOOOO...XXXX.                   .oooOO++++X.                      .OOOOXXX.                        .OOOO.X.                       .ooOOo++X.           ",
"        .OOOO. ......                    .OOO.  .XXXX.                   .OOOOOooXXXX.                      ....XX.                         .OOO.X.                        .OOOO.XXX.           ",
"         ....                             ...   .....                    .OOOO...XXXX.                        ....                           .....                         .OOOO.XX.            ",
"                                                                          ....   .XXX.                                                                                     .OOOO...             "
};
